<mxfile host="app.diagrams.net" modified="2023-01-09T12:37:05.206Z" agent="5.0 (Windows NT 10.0; Win64; x64) AppleWebKit/537.36 (KHTML, like Gecko) Chrome/108.0.0.0 Safari/537.36" version="20.8.3" etag="u3jSLg7tisn-X53aRhu8" type="github">
  <diagram id="cnbBdcg51f2MrIOiLmwp" name="Página-1">
    <mxGraphModel dx="880" dy="452" grid="1" gridSize="10" guides="1" tooltips="1" connect="1" arrows="1" fold="1" page="1" pageScale="1" pageWidth="827" pageHeight="1169" math="0" shadow="0">
      <root>
        <mxCell id="0" />
        <mxCell id="1" parent="0" />
        <mxCell id="pO_4oH6HTxDffMZFU0ae-1" value="RECEITA DE ARROZ" style="strokeWidth=2;html=1;shape=mxgraph.flowchart.annotation_2;align=left;labelPosition=right;pointerEvents=1;" vertex="1" parent="1">
          <mxGeometry x="30" y="40" width="50" height="100" as="geometry" />
        </mxCell>
        <mxCell id="pO_4oH6HTxDffMZFU0ae-8" style="edgeStyle=orthogonalEdgeStyle;rounded=0;orthogonalLoop=1;jettySize=auto;html=1;exitX=0.5;exitY=1;exitDx=0;exitDy=0;exitPerimeter=0;entryX=0.5;entryY=0;entryDx=0;entryDy=0;" edge="1" parent="1" source="pO_4oH6HTxDffMZFU0ae-2" target="pO_4oH6HTxDffMZFU0ae-4">
          <mxGeometry relative="1" as="geometry" />
        </mxCell>
        <mxCell id="pO_4oH6HTxDffMZFU0ae-2" value="INICIO" style="strokeWidth=2;html=1;shape=mxgraph.flowchart.terminator;whiteSpace=wrap;fillColor=#fff2cc;strokeColor=#d6b656;" vertex="1" parent="1">
          <mxGeometry x="350" y="60" width="100" height="60" as="geometry" />
        </mxCell>
        <mxCell id="pO_4oH6HTxDffMZFU0ae-3" value="FIM" style="strokeWidth=2;html=1;shape=mxgraph.flowchart.terminator;whiteSpace=wrap;fillColor=#fff2cc;strokeColor=#d6b656;" vertex="1" parent="1">
          <mxGeometry x="364" y="620" width="100" height="60" as="geometry" />
        </mxCell>
        <mxCell id="pO_4oH6HTxDffMZFU0ae-9" style="edgeStyle=orthogonalEdgeStyle;rounded=0;orthogonalLoop=1;jettySize=auto;html=1;exitX=0.5;exitY=1;exitDx=0;exitDy=0;entryX=0.5;entryY=0;entryDx=0;entryDy=0;" edge="1" parent="1" source="pO_4oH6HTxDffMZFU0ae-4" target="pO_4oH6HTxDffMZFU0ae-5">
          <mxGeometry relative="1" as="geometry" />
        </mxCell>
        <mxCell id="pO_4oH6HTxDffMZFU0ae-4" value="PEGAR A PANELA" style="rounded=1;whiteSpace=wrap;html=1;absoluteArcSize=1;arcSize=14;strokeWidth=2;fillColor=#dae8fc;strokeColor=#6c8ebf;" vertex="1" parent="1">
          <mxGeometry x="160" y="180" width="100" height="50" as="geometry" />
        </mxCell>
        <mxCell id="pO_4oH6HTxDffMZFU0ae-10" style="edgeStyle=orthogonalEdgeStyle;rounded=0;orthogonalLoop=1;jettySize=auto;html=1;exitX=0.5;exitY=1;exitDx=0;exitDy=0;entryX=0.5;entryY=0;entryDx=0;entryDy=0;" edge="1" parent="1" source="pO_4oH6HTxDffMZFU0ae-5" target="pO_4oH6HTxDffMZFU0ae-6">
          <mxGeometry relative="1" as="geometry" />
        </mxCell>
        <mxCell id="pO_4oH6HTxDffMZFU0ae-5" value="PEGAR OS INGREDIENTES" style="rounded=1;whiteSpace=wrap;html=1;absoluteArcSize=1;arcSize=14;strokeWidth=2;fillColor=#dae8fc;strokeColor=#6c8ebf;" vertex="1" parent="1">
          <mxGeometry x="160" y="270" width="100" height="50" as="geometry" />
        </mxCell>
        <mxCell id="pO_4oH6HTxDffMZFU0ae-11" style="edgeStyle=orthogonalEdgeStyle;rounded=0;orthogonalLoop=1;jettySize=auto;html=1;exitX=0.5;exitY=1;exitDx=0;exitDy=0;fillColor=#f8cecc;strokeColor=#b85450;" edge="1" parent="1" source="pO_4oH6HTxDffMZFU0ae-6" target="pO_4oH6HTxDffMZFU0ae-7">
          <mxGeometry relative="1" as="geometry" />
        </mxCell>
        <mxCell id="pO_4oH6HTxDffMZFU0ae-6" value="REFOGAR OS TEMPEROS COM O AZEITE" style="rounded=1;whiteSpace=wrap;html=1;absoluteArcSize=1;arcSize=14;strokeWidth=2;fillColor=#f8cecc;strokeColor=#b85450;" vertex="1" parent="1">
          <mxGeometry x="470" y="200" width="100" height="50" as="geometry" />
        </mxCell>
        <mxCell id="pO_4oH6HTxDffMZFU0ae-13" style="edgeStyle=orthogonalEdgeStyle;rounded=0;orthogonalLoop=1;jettySize=auto;html=1;exitX=0.5;exitY=1;exitDx=0;exitDy=0;entryX=0.5;entryY=0;entryDx=0;entryDy=0;fillColor=#f8cecc;strokeColor=#b85450;" edge="1" parent="1" source="pO_4oH6HTxDffMZFU0ae-7" target="pO_4oH6HTxDffMZFU0ae-12">
          <mxGeometry relative="1" as="geometry" />
        </mxCell>
        <mxCell id="pO_4oH6HTxDffMZFU0ae-7" value="MISTURAR O REFOGADO COM O ARROZ" style="rounded=1;whiteSpace=wrap;html=1;absoluteArcSize=1;arcSize=14;strokeWidth=2;fillColor=#f8cecc;strokeColor=#b85450;" vertex="1" parent="1">
          <mxGeometry x="470" y="280" width="100" height="50" as="geometry" />
        </mxCell>
        <mxCell id="pO_4oH6HTxDffMZFU0ae-15" style="edgeStyle=orthogonalEdgeStyle;rounded=0;orthogonalLoop=1;jettySize=auto;html=1;exitX=0.5;exitY=1;exitDx=0;exitDy=0;entryX=0.5;entryY=0;entryDx=0;entryDy=0;fillColor=#f8cecc;strokeColor=#b85450;" edge="1" parent="1" source="pO_4oH6HTxDffMZFU0ae-12" target="pO_4oH6HTxDffMZFU0ae-14">
          <mxGeometry relative="1" as="geometry" />
        </mxCell>
        <mxCell id="pO_4oH6HTxDffMZFU0ae-12" value="ADICIONAR AGUA E SAL O SUFICIENTE" style="rounded=1;whiteSpace=wrap;html=1;absoluteArcSize=1;arcSize=14;strokeWidth=2;fillColor=#f8cecc;strokeColor=#b85450;" vertex="1" parent="1">
          <mxGeometry x="470" y="360" width="100" height="50" as="geometry" />
        </mxCell>
        <mxCell id="pO_4oH6HTxDffMZFU0ae-17" style="edgeStyle=orthogonalEdgeStyle;rounded=0;orthogonalLoop=1;jettySize=auto;html=1;exitX=0.5;exitY=1;exitDx=0;exitDy=0;fillColor=#f8cecc;strokeColor=#b85450;" edge="1" parent="1" source="pO_4oH6HTxDffMZFU0ae-14" target="pO_4oH6HTxDffMZFU0ae-16">
          <mxGeometry relative="1" as="geometry" />
        </mxCell>
        <mxCell id="pO_4oH6HTxDffMZFU0ae-14" value="ESPERAR A AGUA EVAPORAR" style="rounded=1;whiteSpace=wrap;html=1;absoluteArcSize=1;arcSize=14;strokeWidth=2;fillColor=#f8cecc;strokeColor=#b85450;" vertex="1" parent="1">
          <mxGeometry x="470" y="440" width="100" height="50" as="geometry" />
        </mxCell>
        <mxCell id="pO_4oH6HTxDffMZFU0ae-18" style="edgeStyle=orthogonalEdgeStyle;rounded=0;orthogonalLoop=1;jettySize=auto;html=1;exitX=0.5;exitY=1;exitDx=0;exitDy=0;entryX=0.5;entryY=0;entryDx=0;entryDy=0;entryPerimeter=0;" edge="1" parent="1" source="pO_4oH6HTxDffMZFU0ae-16" target="pO_4oH6HTxDffMZFU0ae-3">
          <mxGeometry relative="1" as="geometry" />
        </mxCell>
        <mxCell id="pO_4oH6HTxDffMZFU0ae-16" value="DESLIGAR O FOGÃO&amp;nbsp;" style="rounded=1;whiteSpace=wrap;html=1;absoluteArcSize=1;arcSize=14;strokeWidth=2;fillColor=#f8cecc;strokeColor=#b85450;" vertex="1" parent="1">
          <mxGeometry x="470" y="520" width="100" height="50" as="geometry" />
        </mxCell>
      </root>
    </mxGraphModel>
  </diagram>
</mxfile>
